<svg xmlns="http://www.w3.org/2000/svg" xmlns:xlink="http://www.w3.org/1999/xlink" version="1.1" width="1000" height="1000" viewBox="0 0 1000 1000" xml:space="preserve">
<desc>Created with Fabric.js 3.5.0</desc>
<defs>
</defs>
<rect x="0" y="0" width="100%" height="100%" fill="rgba(255,255,255,0)"/>
<g transform="matrix(4.7163 0 0 4.7163 500 500)" id="223539">
<g style="" vector-effect="non-scaling-stroke">
		<g transform="matrix(1 0 0 1 0 0)">
<path style="stroke: none; stroke-width: 1; stroke-dasharray: none; stroke-linecap: butt; stroke-dashoffset: 0; stroke-linejoin: miter; stroke-miterlimit: 4; is-custom-font: none; font-file-url: none; fill: rgb(196,138,138); fill-opacity: 0; fill-rule: evenodd; opacity: 1;" transform=" translate(-96.378, -96.378)" d="M 0 0 h 192.756 v 192.756 H 0 V 0 z" stroke-linecap="round"/>
</g>
		<g transform="matrix(1 0 0 1 2.8355 0.0008)">
<path style="stroke: none; stroke-width: 1; stroke-dasharray: none; stroke-linecap: butt; stroke-dashoffset: 0; stroke-linejoin: miter; stroke-miterlimit: 4; is-custom-font: none; font-file-url: none; fill: rgb(255,255,255); fill-rule: evenodd; opacity: 1;" transform=" translate(-99.2136, -96.3788)" d="M 42.741 71.477 c -9.881 11.604 -19.355 25.994 -19.45 36.75 c -0.037 4.047 1.255 7.58 4.354 10.256 c 4.46 3.854 9.374 5.213 14.264 5.221 c 7.146 0.01 14.242 -2.873 19.798 -5.096 c 9.357 -3.742 112.79 -48.659 112.79 -48.659 c 0.998 -0.5 0.811 -1.123 -0.438 -0.812 c -0.504 0.126 -112.603 30.505 -112.603 30.505 a 24.771 24.771 0 0 1 -6.524 0.934 c -8.615 0.051 -16.281 -4.731 -16.219 -14.808 c 0.024 -3.943 1.231 -8.698 4.028 -14.291 z" stroke-linecap="round"/>
</g>
</g>
</g>
</svg>